<svg width="150" height="40" viewBox="0 0 150 40" fill="none" xmlns="http://www.w3.org/2000/svg">
  <path d="M40 20C40 31.0457 31.0457 40 20 40C8.9543 40 0 31.0457 0 20C0 8.9543 8.9543 0 20 0C31.0457 0 40 8.9543 40 20Z" fill="white"/>
  <path d="M20 10C14.4772 10 10 14.4772 10 20C10 25.5228 14.4772 30 20 30C25.5228 30 30 25.5228 30 20C30 14.4772 25.5228 10 20 10ZM8 20C8 13.3726 13.3726 8 20 8C26.6274 8 32 13.3726 32 20C32 26.6274 26.6274 32 20 32C13.3726 32 8 26.6274 8 20Z" fill="#0D9488"/>
  <path d="M20 15C17.2386 15 15 17.2386 15 20C15 22.7614 17.2386 25 20 25C22.7614 25 25 22.7614 25 20C25 17.2386 22.7614 15 20 15Z" fill="#0D9488"/>
  <path d="M55 15H50V25H55C58.3137 25 61 22.3137 61 19C61 15.6863 58.3137 13 55 13V15ZM55 23H52V17H55C57.2091 17 59 17.7909 59 19C59 20.2091 57.2091 23 55 23Z" fill="white"/>
  <path d="M67.8 25.24C66.3733 25.24 65.1733 24.8267 64.2 24C63.24 23.16 62.76 22.0267 62.76 20.6C62.76 19.1733 63.24 18.04 64.2 17.2C65.1733 16.3467 66.3733 15.92 67.8 15.92C68.7333 15.92 69.56 16.12 70.28 16.52C71 16.92 71.5467 17.4933 71.92 18.24L70.2 19.16C70.0133 18.7067 69.7067 18.3467 69.28 18.08C68.8533 17.8 68.3467 17.66 67.76 17.66C66.9333 17.66 66.2533 17.9067 65.72 18.4C65.1867 18.88 64.92 19.6 64.92 20.56C64.92 21.52 65.1867 22.2467 65.72 22.74C66.2533 23.22 66.9333 23.46 67.76 23.46C68.3467 23.46 68.8533 23.3267 69.28 23.06C69.7067 22.78 70.0133 22.4133 70.2 21.96L71.92 22.88C71.5467 23.6133 71 24.1867 70.28 24.6C69.56 25.0267 68.7333 25.24 67.8 25.24Z" fill="white"/>
  <path d="M77.4766 25.24C76.0499 25.24 74.8899 24.8267 73.9966 24C73.1032 23.16 72.6566 22.0267 72.6566 20.6C72.6566 19.1733 73.1032 18.04 73.9966 17.2C74.8899 16.3467 76.0499 15.92 77.4766 15.92C78.9032 15.92 80.0632 16.3467 80.9566 17.2C81.8499 18.04 82.2966 19.1733 82.2966 20.6C82.2966 22.0267 81.8499 23.16 80.9566 24C80.0632 24.8267 78.9032 25.24 77.4766 25.24ZM77.4766 23.46C78.3032 23.46 78.9699 23.2133 79.4766 22.72C79.9832 22.2267 80.2366 21.52 80.2366 20.6C80.2366 19.68 79.9832 18.9733 79.4766 18.48C78.9699 17.9867 78.3032 17.74 77.4766 17.74C76.6499 17.74 75.9832 17.9867 75.4766 18.48C74.9699 18.9733 74.7166 19.68 74.7166 20.6C74.7166 21.52 74.9699 22.2267 75.4766 22.72C75.9832 23.2133 76.6499 23.46 77.4766 23.46Z" fill="white"/>
  <path d="M89.0031 25H86.9631V21.18C86.9631 20.5933 86.8498 20.1533 86.6231 19.86C86.3965 19.5667 86.0498 19.42 85.5831 19.42C85.0365 19.42 84.6098 19.6 84.3031 19.96C83.9965 20.32 83.8431 20.8467 83.8431 21.54V25H81.8031V16.16H83.8431V18.78C84.0698 18.3533 84.3965 18.0267 84.8231 17.8C85.2631 17.56 85.7698 17.44 86.3431 17.44C87.2231 17.44 87.9031 17.7 88.3831 18.22C88.8765 18.7267 89.1231 19.4733 89.1231 20.46L89.0031 25Z" fill="white"/>
  <path d="M95.1484 25.24C93.7218 25.24 92.5618 24.8267 91.6684 24C90.7751 23.16 90.3284 22.0267 90.3284 20.6C90.3284 19.1733 90.7751 18.04 91.6684 17.2C92.5618 16.3467 93.7218 15.92 95.1484 15.92C96.5751 15.92 97.7351 16.3467 98.6284 17.2C99.5218 18.04 99.9684 19.1733 99.9684 20.6C99.9684 22.0267 99.5218 23.16 98.6284 24C97.7351 24.8267 96.5751 25.24 95.1484 25.24ZM95.1484 23.46C95.9751 23.46 96.6418 23.2133 97.1484 22.72C97.6551 22.2267 97.9084 21.52 97.9084 20.6C97.9084 19.68 97.6551 18.9733 97.1484 18.48C96.6418 17.9867 95.9751 17.74 95.1484 17.74C94.3218 17.74 93.6551 17.9867 93.1484 18.48C92.6418 18.9733 92.3884 19.68 92.3884 20.6C92.3884 21.52 92.6418 22.2267 93.1484 22.72C93.6551 23.2133 94.3218 23.46 95.1484 23.46Z" fill="white"/>
  <path d="M106.355 15.92C107.528 15.92 108.462 16.2933 109.155 17.04C109.848 17.7733 110.195 18.8 110.195 20.12V25H108.155V20.38C108.155 19.6467 107.982 19.0933 107.635 18.72C107.302 18.3467 106.822 18.16 106.195 18.16C105.502 18.16 104.955 18.3733 104.555 18.8C104.155 19.2267 103.955 19.8333 103.955 20.62V25H101.915V16.16H103.955V17.58C104.248 17.1 104.635 16.7333 105.115 16.48C105.608 16.1067 106.155 15.92 106.755 15.92H106.355Z" fill="white"/>
  <path d="M116.445 25.24C115.018 25.24 113.858 24.8267 112.965 24C112.072 23.16 111.625 22.0267 111.625 20.6C111.625 19.1733 112.072 18.04 112.965 17.2C113.858 16.3467 115.018 15.92 116.445 15.92C117.872 15.92 119.032 16.3467 119.925 17.2C120.818 18.04 121.265 19.1733 121.265 20.6C121.265 22.0267 120.818 23.16 119.925 24C119.032 24.8267 117.872 25.24 116.445 25.24ZM116.445 23.46C117.272 23.46 117.938 23.2133 118.445 22.72C118.952 22.2267 119.205 21.52 119.205 20.6C119.205 19.68 118.952 18.9733 118.445 18.48C117.938 17.9867 117.272 17.74 116.445 17.74C115.618 17.74 114.952 17.9867 114.445 18.48C113.938 18.9733 113.685 19.68 113.685 20.6C113.685 21.52 113.938 22.2267 114.445 22.72C114.952 23.2133 115.618 23.46 116.445 23.46Z" fill="white"/>
  <path d="M127.652 25.24C126.225 25.24 125.065 24.8267 124.172 24C123.278 23.16 122.832 22.0267 122.832 20.6C122.832 19.1733 123.278 18.04 124.172 17.2C125.065 16.3467 126.225 15.92 127.652 15.92C128.585 15.92 129.412 16.12 130.132 16.52C130.852 16.92 131.398 17.4933 131.772 18.24L130.052 19.16C129.865 18.7067 129.558 18.3467 129.132 18.08C128.705 17.8 128.198 17.66 127.612 17.66C126.785 17.66 126.105 17.9067 125.572 18.4C125.038 18.88 124.772 19.6 124.772 20.56C124.772 21.52 125.038 22.2467 125.572 22.74C126.105 23.22 126.785 23.46 127.612 23.46C128.198 23.46 128.705 23.3267 129.132 23.06C129.558 22.78 129.865 22.4133 130.052 21.96L131.772 22.88C131.398 23.6133 130.852 24.1867 130.132 24.6C129.412 25.0267 128.585 25.24 127.652 25.24Z" fill="white"/>
  <path d="M137.328 25.24C135.901 25.24 134.741 24.8267 133.848 24C132.954 23.16 132.508 22.0267 132.508 20.6C132.508 19.1733 132.954 18.04 133.848 17.2C134.741 16.3467 135.901 15.92 137.328 15.92C138.754 15.92 139.914 16.3467 140.808 17.2C141.701 18.04 142.148 19.1733 142.148 20.6C142.148 22.0267 141.701 23.16 140.808 24C139.914 24.8267 138.754 25.24 137.328 25.24ZM137.328 23.46C138.154 23.46 138.821 23.2133 139.328 22.72C139.834 22.2267 140.088 21.52 140.088 20.6C140.088 19.68 139.834 18.9733 139.328 18.48C138.821 17.9867 138.154 17.74 137.328 17.74C136.501 17.74 135.834 17.9867 135.328 18.48C134.821 18.9733 134.568 19.68 134.568 20.6C134.568 21.52 134.821 22.2267 135.328 22.72C135.834 23.2133 136.501 23.46 137.328 23.46Z" fill="white"/>
  <path d="M148.534 25.24C147.708 25.24 146.974 25.0667 146.334 24.72C145.694 24.36 145.188 23.8667 144.814 23.24C144.454 22.6 144.274 21.8667 144.274 21.04V16.16H146.314V20.78C146.314 21.5133 146.488 22.0733 146.834 22.46C147.181 22.8333 147.668 23.02 148.294 23.02C148.988 23.02 149.534 22.8067 149.934 22.38C150.334 21.9533 150.534 21.3467 150.534 20.56V16.16H152.574V25H150.534V23.58C150.241 24.06 149.848 24.4333 149.354 24.7C148.874 25.06 148.334 25.24 147.734 25.24H148.534Z" fill="white"/>
</svg>

